<svg width="555" height="289" viewBox="0 0 555 289" fill="none" xmlns="http://www.w3.org/2000/svg">
<g clip-path="url(#clip0_5_100)">
<path d="M535 0H20C8.9543 0 0 8.9543 0 20V269C0 280.046 8.9543 289 20 289H535C546.046 289 555 280.046 555 269V20C555 8.9543 546.046 0 535 0Z" fill="#98BDFF"/>
<path d="M555 0H0V289H555V0Z" fill="#DAE7FF"/>
<g clip-path="url(#clip1_5_100)">
<path opacity="0.1" d="M314.395 69.9112C290.739 69.0887 268.191 61.4486 246.692 53.0914C225.194 44.7342 203.885 35.4729 180.783 31.0445C165.93 28.1931 148.943 27.792 136.977 35.7584C125.46 43.4223 121.74 56.6531 119.739 68.929C118.234 78.1664 117.361 87.8865 121.475 96.536C124.339 102.538 129.421 107.585 132.938 113.335C145.168 133.343 136.522 158.017 123.265 177.569C117.048 186.746 109.835 195.477 105.038 205.234C100.241 214.992 98.0193 226.17 102.218 236.121C106.38 245.977 116.294 253.393 127.036 258.603C148.854 269.176 174.562 272.201 199.632 273.934C255.125 277.73 310.916 276.085 366.555 274.44C387.147 273.829 407.83 273.213 428.085 270.022C439.334 268.251 450.95 265.444 459.117 258.667C469.482 250.062 472.054 235.495 465.107 224.705C453.454 206.611 421.236 202.114 413.089 182.694C408.608 172.006 413.212 160.097 419.728 150.183C433.701 128.918 457.13 110.26 458.363 85.9493C459.212 69.2518 447.95 52.534 430.535 44.6322C412.284 36.343 386.974 37.3897 373.51 51.0896C359.645 65.2041 335.279 70.6351 314.395 69.9112Z" fill="#6C63FF"/>
<path d="M182.302 269.414C182.302 269.414 163.616 255.282 160.086 237.307C158.655 229.757 154.815 222.876 149.143 217.694C146.43 215.256 143.499 213.072 140.388 211.168" stroke="#535461" stroke-width="2" stroke-miterlimit="10"/>
<path d="M138.102 199.844C139.739 202.06 140.48 211.45 140.48 211.45C140.48 211.45 131.725 208.001 130.084 205.788C129.296 204.724 128.963 203.391 129.157 202.082C129.352 200.772 130.059 199.594 131.122 198.806C132.185 198.017 133.518 197.684 134.827 197.879C136.136 198.073 137.314 198.78 138.102 199.844Z" fill="#6C63FF"/>
<path d="M153.804 207.212C153.974 209.962 149.5 218.247 149.5 218.247C149.5 218.247 144.02 210.587 143.847 207.838C143.781 206.527 144.234 205.243 145.108 204.264C145.981 203.285 147.206 202.69 148.515 202.608C149.824 202.525 151.114 202.962 152.103 203.824C153.092 204.686 153.702 205.903 153.801 207.212H153.804Z" fill="#6C63FF"/>
<path d="M169.025 228.392C167.788 230.853 159.74 235.747 159.74 235.747C159.74 235.747 158.88 226.367 160.117 223.906C160.725 222.749 161.764 221.877 163.009 221.478C164.254 221.08 165.605 221.185 166.773 221.773C167.94 222.361 168.83 223.384 169.252 224.622C169.673 225.86 169.591 227.214 169.025 228.392Z" fill="#6C63FF"/>
<path d="M176.937 247.003C176.132 249.637 169.028 255.819 169.028 255.819C169.028 255.819 166.592 246.721 167.397 244.084C167.784 242.818 168.658 241.758 169.826 241.137C170.994 240.516 172.361 240.385 173.626 240.772C174.891 241.159 175.951 242.033 176.572 243.202C177.193 244.37 177.324 245.738 176.937 247.003Z" fill="#6C63FF"/>
<path d="M141.4 224.909C144.118 225.276 152.71 221.395 152.71 221.395C152.71 221.395 145.46 215.386 142.729 215.019C141.418 214.843 140.091 215.195 139.039 215.997C137.987 216.8 137.298 217.988 137.121 219.299C136.945 220.611 137.297 221.939 138.1 222.991C138.902 224.043 140.089 224.733 141.4 224.909Z" fill="#6C63FF"/>
<path d="M150.93 246.561C153.648 246.096 160.671 239.825 160.671 239.825C160.671 239.825 151.953 236.264 149.238 236.729C148.588 236.836 147.966 237.07 147.407 237.419C146.848 237.767 146.364 238.223 145.982 238.76C145.6 239.296 145.328 239.903 145.182 240.546C145.036 241.188 145.018 241.853 145.131 242.502C145.243 243.152 145.482 243.772 145.836 244.328C146.189 244.884 146.648 245.365 147.188 245.742C147.728 246.12 148.337 246.386 148.981 246.527C149.624 246.668 150.289 246.679 150.937 246.561H150.93Z" fill="#6C63FF"/>
<path d="M163.076 266.338C165.831 266.338 173.815 261.345 173.815 261.345C173.815 261.345 165.828 256.36 163.072 256.36C161.75 256.36 160.481 256.885 159.546 257.821C158.611 258.757 158.085 260.026 158.085 261.349C158.085 262.672 158.611 263.941 159.546 264.877C160.481 265.812 161.75 266.338 163.072 266.338H163.076Z" fill="#6C63FF"/>
<path d="M363.824 147.189C363.824 147.189 375.341 126.78 392.702 120.901C399.991 118.479 406.3 113.758 410.68 107.446C412.735 104.428 414.508 101.228 415.977 97.8853" stroke="#535461" stroke-width="2" stroke-miterlimit="10"/>
<path d="M426.876 94.1468C424.899 96.0636 415.695 98.0484 415.695 98.0484C415.695 98.0484 417.954 88.9061 419.932 86.9859C420.886 86.092 422.153 85.6087 423.46 85.6402C424.767 85.6716 426.01 86.2152 426.92 87.154C427.83 88.0927 428.336 89.3515 428.328 90.6594C428.319 91.9673 427.798 93.2196 426.876 94.1468Z" fill="#6C63FF"/>
<path d="M421.671 110.674C418.953 111.211 410.164 107.874 410.164 107.874C410.164 107.874 417.027 101.416 419.728 100.89C420.376 100.746 421.047 100.733 421.701 100.852C422.354 100.971 422.977 101.219 423.534 101.582C424.09 101.945 424.568 102.416 424.94 102.966C425.312 103.517 425.571 104.136 425.7 104.788C425.829 105.44 425.827 106.111 425.694 106.762C425.561 107.413 425.299 108.031 424.923 108.579C424.548 109.127 424.067 109.595 423.509 109.955C422.95 110.315 422.325 110.559 421.671 110.674Z" fill="#6C63FF"/>
<path d="M402.727 128.578C400.125 127.678 394.21 120.35 394.21 120.35C394.21 120.35 403.383 118.25 405.992 119.15C406.619 119.358 407.198 119.689 407.696 120.123C408.195 120.557 408.602 121.085 408.894 121.678C409.186 122.27 409.358 122.915 409.399 123.574C409.441 124.234 409.351 124.895 409.134 125.519C408.918 126.143 408.58 126.719 408.14 127.211C407.7 127.704 407.166 128.104 406.57 128.388C405.974 128.673 405.327 128.836 404.668 128.869C404.008 128.902 403.348 128.803 402.727 128.578Z" fill="#6C63FF"/>
<path d="M385.319 138.896C382.601 138.448 375.548 132.211 375.548 132.211C375.548 132.211 384.242 128.588 386.957 129.037C388.263 129.252 389.431 129.977 390.203 131.054C390.975 132.13 391.287 133.469 391.073 134.776C390.858 136.083 390.133 137.251 389.057 138.023C387.981 138.795 386.643 139.108 385.336 138.893L385.319 138.896Z" fill="#6C63FF"/>
<path d="M402.489 100.727C402.486 103.483 407.484 111.48 407.484 111.48C407.484 111.48 412.474 103.493 412.474 100.74C412.492 100.074 412.376 99.4115 412.133 98.7912C411.89 98.1709 411.526 97.6055 411.061 97.1284C410.596 96.6512 410.041 96.272 409.427 96.0131C408.814 95.7541 408.155 95.6207 407.489 95.6207C406.823 95.6207 406.164 95.7541 405.55 96.0131C404.937 96.272 404.381 96.6512 403.916 97.1284C403.452 97.6055 403.087 98.1709 402.845 98.7912C402.602 99.4115 402.486 100.074 402.503 100.74L402.489 100.727Z" fill="#6C63FF"/>
<path d="M382.299 113.05C383.121 115.68 390.269 121.815 390.269 121.815C390.269 121.815 392.647 112.7 391.818 110.069C391.388 108.851 390.502 107.846 389.347 107.268C388.192 106.689 386.857 106.582 385.624 106.968C384.391 107.355 383.357 108.204 382.738 109.339C382.118 110.473 381.964 111.804 382.306 113.05H382.299Z" fill="#6C63FF"/>
<path d="M364.337 127.722C364.704 130.441 370.71 137.703 370.71 137.703C370.71 137.703 374.587 129.122 374.22 126.393C374.147 125.732 373.943 125.092 373.619 124.511C373.295 123.929 372.859 123.419 372.335 123.009C371.811 122.599 371.211 122.298 370.569 122.124C369.927 121.95 369.257 121.906 368.598 121.994C367.939 122.083 367.304 122.302 366.731 122.64C366.158 122.978 365.659 123.427 365.262 123.96C364.864 124.494 364.578 125.102 364.419 125.748C364.261 126.394 364.232 127.065 364.337 127.722Z" fill="#6C63FF"/>
<path opacity="0.25" d="M426.876 94.1468C424.899 96.0636 415.695 98.0484 415.695 98.0484C415.695 98.0484 417.954 88.9061 419.932 86.9859C420.886 86.092 422.153 85.6087 423.46 85.6402C424.767 85.6716 426.01 86.2152 426.92 87.154C427.83 88.0927 428.336 89.3515 428.328 90.6594C428.319 91.9673 427.798 93.2196 426.876 94.1468Z" fill="black"/>
<path opacity="0.25" d="M421.671 110.674C418.953 111.211 410.164 107.874 410.164 107.874C410.164 107.874 417.027 101.416 419.728 100.89C420.376 100.746 421.047 100.733 421.701 100.852C422.354 100.971 422.977 101.219 423.534 101.582C424.09 101.945 424.568 102.416 424.94 102.966C425.312 103.517 425.571 104.136 425.7 104.788C425.829 105.44 425.827 106.111 425.694 106.762C425.561 107.413 425.299 108.031 424.923 108.579C424.548 109.127 424.067 109.595 423.509 109.955C422.95 110.315 422.325 110.559 421.671 110.674Z" fill="black"/>
<path opacity="0.25" d="M402.727 128.578C400.125 127.678 394.21 120.35 394.21 120.35C394.21 120.35 403.383 118.25 405.992 119.15C406.619 119.358 407.198 119.689 407.696 120.123C408.195 120.557 408.602 121.085 408.894 121.678C409.186 122.27 409.358 122.915 409.399 123.574C409.441 124.234 409.351 124.895 409.134 125.519C408.918 126.143 408.58 126.719 408.14 127.211C407.7 127.704 407.166 128.104 406.57 128.388C405.974 128.673 405.327 128.836 404.668 128.869C404.008 128.902 403.348 128.803 402.727 128.578Z" fill="black"/>
<path opacity="0.25" d="M385.319 138.896C382.601 138.448 375.548 132.211 375.548 132.211C375.548 132.211 384.242 128.588 386.957 129.037C388.263 129.252 389.431 129.977 390.203 131.054C390.975 132.13 391.287 133.469 391.073 134.776C390.858 136.083 390.133 137.251 389.057 138.023C387.981 138.795 386.643 139.108 385.336 138.893L385.319 138.896Z" fill="black"/>
<path opacity="0.25" d="M402.489 100.727C402.486 103.483 407.484 111.48 407.484 111.48C407.484 111.48 412.474 103.493 412.474 100.74C412.492 100.074 412.376 99.4115 412.133 98.7912C411.89 98.1709 411.526 97.6055 411.061 97.1284C410.596 96.6512 410.041 96.272 409.427 96.0131C408.814 95.7541 408.155 95.6207 407.489 95.6207C406.823 95.6207 406.164 95.7541 405.55 96.0131C404.937 96.272 404.381 96.6512 403.916 97.1284C403.452 97.6055 403.087 98.1709 402.845 98.7912C402.602 99.4115 402.486 100.074 402.503 100.74L402.489 100.727Z" fill="black"/>
<path opacity="0.25" d="M382.299 113.05C383.121 115.68 390.269 121.815 390.269 121.815C390.269 121.815 392.647 112.7 391.818 110.069C391.388 108.851 390.502 107.846 389.347 107.268C388.192 106.689 386.857 106.582 385.624 106.968C384.391 107.355 383.357 108.204 382.738 109.339C382.118 110.473 381.964 111.804 382.306 113.05H382.299Z" fill="black"/>
<path opacity="0.25" d="M364.337 127.722C364.704 130.441 370.71 137.703 370.71 137.703C370.71 137.703 374.587 129.122 374.22 126.393C374.147 125.732 373.943 125.092 373.619 124.511C373.295 123.929 372.859 123.419 372.335 123.009C371.811 122.599 371.211 122.298 370.569 122.124C369.927 121.95 369.257 121.906 368.598 121.994C367.939 122.083 367.304 122.302 366.731 122.64C366.158 122.978 365.659 123.427 365.262 123.96C364.864 124.494 364.578 125.102 364.419 125.748C364.261 126.394 364.232 127.065 364.337 127.722Z" fill="black"/>
<path d="M364.486 146.785C364.486 146.785 366.749 123.456 380.223 111.051C385.906 105.882 389.761 99.0083 391.21 91.4618C391.87 87.8744 392.198 84.2339 392.192 80.5862" stroke="#535461" stroke-width="2" stroke-miterlimit="10"/>
<path d="M400.638 72.715C399.619 75.2708 391.995 80.8174 391.995 80.8174C391.995 80.8174 390.357 71.5425 391.387 68.9868C391.882 67.7595 392.845 66.7795 394.063 66.2623C395.281 65.7451 396.654 65.733 397.881 66.2288C399.108 66.7245 400.087 67.6875 400.604 68.9058C401.121 70.1241 401.133 71.498 400.638 72.7252V72.715Z" fill="#6C63FF"/>
<path d="M402.578 89.9529C400.325 91.5366 390.925 92.0566 390.925 92.0566C390.925 92.0566 394.587 83.3765 396.84 81.7928C397.374 81.3928 397.983 81.1042 398.63 80.9439C399.278 80.7837 399.951 80.755 400.61 80.8598C401.269 80.9645 401.901 81.2004 402.467 81.5536C403.033 81.9067 403.523 82.3699 403.907 82.9158C404.291 83.4616 404.561 84.079 404.702 84.7314C404.844 85.3837 404.852 86.0578 404.729 86.7137C404.605 87.3695 404.35 87.9938 403.981 88.5497C403.612 89.1055 403.134 89.5815 402.578 89.9495V89.9529Z" fill="#6C63FF"/>
<path d="M392.501 114.008C389.756 114.239 381.378 109.93 381.378 109.93C381.378 109.93 388.92 104.288 391.665 104.057C392.984 103.946 394.292 104.364 395.302 105.218C396.313 106.072 396.943 107.293 397.054 108.611C397.164 109.93 396.747 111.239 395.893 112.25C395.04 113.26 393.819 113.891 392.501 114.002V114.008Z" fill="#6C63FF"/>
<path d="M380.777 130.488C378.11 131.168 369.127 128.357 369.127 128.357C369.127 128.357 375.606 121.523 378.273 120.829C379.553 120.497 380.913 120.687 382.053 121.358C383.193 122.029 384.02 123.126 384.352 124.406C384.684 125.687 384.494 127.048 383.824 128.188C383.153 129.329 382.057 130.156 380.777 130.488Z" fill="#6C63FF"/>
<path d="M381.015 88.6342C382.129 91.1526 389.923 96.451 389.923 96.451C389.923 96.451 391.248 87.1252 390.133 84.6068C389.578 83.4286 388.584 82.5143 387.364 82.0594C386.144 81.6044 384.794 81.6449 383.603 82.1721C382.413 82.6993 381.475 83.6715 380.992 84.8809C380.508 86.0903 380.516 87.441 381.015 88.6444V88.6342Z" fill="#6C63FF"/>
<path d="M367.547 108.081C369.365 110.151 378.382 112.863 378.382 112.863C378.382 112.863 376.86 103.568 375.042 101.498C374.613 100.995 374.088 100.583 373.499 100.284C372.909 99.9862 372.266 99.8082 371.607 99.7607C370.947 99.7133 370.285 99.7973 369.659 100.008C369.033 100.219 368.454 100.552 367.958 100.988C367.461 101.424 367.056 101.955 366.767 102.549C366.477 103.143 366.308 103.789 366.27 104.449C366.231 105.109 366.325 105.77 366.544 106.393C366.763 107.017 367.104 107.591 367.547 108.081Z" fill="#6C63FF"/>
<path d="M357.053 128.786C358.493 131.131 366.922 135.328 366.922 135.328C366.922 135.328 366.994 125.91 365.563 123.562C364.851 122.478 363.745 121.713 362.479 121.431C361.213 121.149 359.887 121.371 358.783 122.051C357.678 122.73 356.881 123.813 356.561 125.071C356.242 126.328 356.424 127.661 357.07 128.786H357.053Z" fill="#6C63FF"/>
<path d="M347.16 55.4262C347.724 53.3565 348.403 51.2765 348.879 49.1796C348.308 51.2765 347.625 53.3633 347.16 55.4262Z" fill="url(#paint0_linear_5_100)"/>
<path d="M344.632 75.3626C344.584 75.281 344.551 75.1994 344.513 75.1247C344.513 75.0907 344.479 75.0635 344.466 75.0295C344.392 75.0645 344.316 75.0951 344.238 75.1213C344.088 75.1791 343.936 75.2334 343.779 75.2776C343.623 75.3218 343.558 75.3456 343.44 75.3728C343.341 75.4067 343.24 75.4329 343.137 75.4509L343.164 75.5121C343.29 75.4849 343.412 75.4611 343.538 75.4271L343.572 75.8486C343.715 75.8486 343.847 75.8282 343.976 75.8282C344.037 75.8248 344.099 75.8248 344.16 75.8282C344.425 75.8282 344.656 75.8282 344.839 75.8282C344.768 75.6753 344.693 75.5155 344.632 75.3626ZM413.599 185.182C412.002 183.031 408.815 159.941 408.815 159.941C408.815 159.941 402.547 143.522 404.256 136.969C405.965 130.417 399.588 113.651 399.588 113.651C399.588 113.651 395.375 111.82 395.148 109.101C395.148 109.101 377.947 103.663 377.142 99.5846C376.489 96.2403 365.822 93.8409 361.989 93.083C360.821 88.3657 359.645 83.9645 358.779 81.5617C358.544 80.814 358.324 80.1682 358.12 79.6584C356.655 75.9199 352.13 75.5801 348.848 75.8792C348.706 75.242 348.442 74.6384 348.07 74.1017C348.016 73.9172 347.908 73.7528 347.761 73.6293C347.691 73.5692 347.616 73.5147 347.537 73.4661C347.477 73.356 347.399 73.2571 347.306 73.1739C347.213 73.0899 347.11 73.0169 347 72.9563C346.921 72.9136 346.839 72.8762 346.755 72.8442C346.559 72.7692 346.355 72.7134 346.147 72.6777C345.905 72.6279 345.66 72.5961 345.413 72.5825C346.013 72.3201 346.548 71.9291 346.98 71.4372C347.273 71.0918 347.492 70.689 347.622 70.2544C347.729 69.893 347.778 69.5166 347.764 69.1397C347.676 69.295 347.574 69.4418 347.459 69.5781C347.601 68.0725 346.806 66.5431 346.351 65.0444C345.8 63.0931 345.697 61.0422 346.052 59.0458C346.507 56.0346 347.635 52.9894 348.4 49.9239C348.402 49.9069 348.402 49.8898 348.4 49.8729C348.801 48.3505 349.049 46.7919 349.14 45.2202C349.273 42.0493 348.461 38.8852 347.156 35.9963C345.998 33.4372 344.289 30.9188 341.673 29.8788C339.73 29.0937 337.552 29.2195 335.459 29.0903C330.764 28.798 326.286 27.1463 321.822 25.6441C317.358 24.1419 312.765 22.7757 308.066 23.0374C303.367 23.2991 298.533 25.566 296.389 29.7259C295.71 31.0241 295.319 32.4686 294.507 33.6887C292.985 35.9895 290.26 37.1417 287.987 38.7288C285.715 40.316 283.714 42.5693 282.891 45.2576C282.442 46.7059 282.379 48.2465 282.708 49.7268C282.782 50.0611 282.877 50.3903 282.993 50.7124C283.316 51.6104 283.819 52.4328 284.471 53.1288C284.963 53.6432 285.529 54.0819 286.149 54.4305C286.929 54.8626 287.763 55.1873 288.63 55.3957C288.599 55.4976 288.568 55.6064 288.534 55.7117C288.48 55.8851 288.433 56.0516 288.382 56.2385C288.269 56.6566 288.164 57.0814 288.076 57.5096C288.072 57.5401 288.072 57.5709 288.076 57.6014C287.659 59.5345 287.449 61.5067 287.451 63.4844C287.45 64.4197 287.498 65.3544 287.593 66.2849C288.952 80.0765 300.334 90.9555 314.395 91.6624C314.878 91.6862 315.364 91.6998 315.856 91.6998C316.08 91.6998 316.301 91.6998 316.536 91.6998C316.757 91.992 316.974 92.2911 317.181 92.5834C317.388 92.8757 317.579 93.1748 317.759 93.467L317.266 92.9572L316.773 92.5052C316.64 92.6886 316.491 92.8603 316.328 93.0184C316.007 92.9054 315.679 92.8123 315.347 92.7397C313.937 92.4271 311.79 92.3115 308.963 93.1646C306.364 93.9428 303.187 95.5436 299.471 98.5854L281.359 109.461L271.561 115.422L268.031 124.055C268.031 124.055 265.378 134.312 262.426 146.064C262.31 146.098 262.198 146.132 262.086 146.173C261.847 146.146 261.606 146.132 261.366 146.132C259.653 146.128 258.005 146.788 256.768 147.974C255.532 149.16 254.802 150.779 254.734 152.491C248.863 159.628 248.53 166.765 249.91 170.041C250.034 170.348 250.192 170.641 250.378 170.915C251.282 172.22 252.971 175.585 254.683 179.17C254.639 179.466 254.612 179.714 254.598 179.901C254.595 179.962 254.595 180.023 254.598 180.084C254.598 180.084 255.617 195.483 252.22 199.898C251.476 200.86 251.588 202.124 252.22 203.525C254.496 208.561 263.496 215.287 263.496 215.287C263.496 215.287 274.289 215.23 280.303 214.574C280.286 215.179 280.272 215.78 280.258 216.368C280.123 222.309 280.123 227.288 280.123 227.288L279.898 233.517C279.898 233.517 277.86 246.646 276.841 250.266C276.199 252.536 276.939 273.557 277.585 289.01H383.93C385.18 279.868 383.417 252.091 383.417 252.091C383.417 252.091 381.742 244.91 381.681 238.649C381.677 238.643 381.675 238.635 381.675 238.627C381.675 238.62 381.677 238.612 381.681 238.605C381.681 238.058 381.681 237.524 381.701 237.001L382.472 236.974L383.858 236.926H383.984C383.984 236.926 384.018 236.797 384.096 236.586C384.279 236.062 384.53 235.562 384.84 235.101C385.431 234.228 386.355 233.371 387.745 233.314C388.513 233.283 389.702 232.661 391.044 231.743C391.053 231.745 391.062 231.745 391.071 231.743C394.682 229.3 399.456 224.79 400.614 224.049C402.208 223.029 409.838 216.232 409.838 216.232C409.838 216.232 410.976 214.791 412.189 213.054L412.233 212.993C413.742 210.818 415.345 208.218 414.951 207.399C414.272 205.931 415.406 202.42 415.406 202.42C418.95 195.932 415.196 187.334 413.599 185.182ZM347.904 80.6474C347.936 80.7489 347.957 80.8538 347.965 80.9601C347.88 80.848 347.795 80.729 347.71 80.6202L347.629 80.5115L347.571 80.4299L347.7 80.2532C347.7 80.2532 347.7 80.2532 347.7 80.277C347.79 80.3872 347.859 80.5127 347.904 80.6474ZM346.762 77.6363C346.392 77.711 346.1 77.779 345.909 77.83C345.668 77.4018 345.437 76.9735 345.23 76.5385C345.775 76.8546 346.288 77.2222 346.762 77.6363ZM346.123 78.1732C346.123 78.1665 346.123 78.1596 346.123 78.1528L346.151 78.1732C346.29 78.265 346.426 78.3534 346.552 78.4451C346.664 78.5267 346.766 78.6049 346.868 78.6864C346.8 78.8054 346.725 78.9277 346.65 79.0263C346.531 78.8394 346.419 78.6592 346.31 78.4723C346.242 78.3975 346.181 78.2956 346.123 78.1732ZM344.085 73.9793C344.741 73.9146 345.403 73.9146 346.059 73.9793C346.151 73.9793 346.232 73.9963 346.314 74.0099C346.498 74.0384 346.679 74.0851 346.854 74.1493C347.255 74.7112 347.503 75.3686 347.571 76.0559L347.387 76.0831L347.207 76.1171C346.868 76.1748 346.528 76.2326 346.263 76.287L345.923 76.3584C345.471 76.4569 345.21 76.5317 345.199 76.5351C345.155 76.4433 345.111 76.3584 345.064 76.27C344.989 76.1239 344.911 75.9743 344.843 75.8282C344.775 75.682 344.686 75.5155 344.615 75.3626C344.567 75.281 344.534 75.1994 344.496 75.1247C344.496 75.0907 344.462 75.0635 344.449 75.0295C344.429 74.9935 344.412 74.956 344.398 74.9174C344.19 74.4959 344 74.0745 343.817 73.6599C343.796 73.6191 343.779 73.5749 343.762 73.5341L344.021 73.5171V73.6055L344.085 73.9793ZM263.027 284.81C263 279.749 262.633 274.274 261.614 269.135C261.179 266.95 260.73 264.764 260.275 262.617C260.159 262.08 260.047 261.549 259.935 261.019L258.889 261.158H258.794C255.94 247.697 252.957 235.835 252.957 235.835C252.957 235.835 247.032 213.204 247.718 211.399C247.807 211.165 247.694 210.533 247.443 209.605C246.009 204.459 240.023 190.28 237.93 185.434C237.93 185.413 237.913 185.39 237.907 185.373C237.567 184.56 237.322 184.013 237.248 183.853L237.74 176.621L237.767 176.186L237.832 175.262L237.805 175.238L237.832 174.81C237.832 174.81 232.661 170.568 223.903 167.506C223.563 167.384 223.203 167.265 222.846 167.149C223.284 164.223 223.865 160.92 224.623 157.701C224.694 157.378 224.772 157.065 224.854 156.749C224.925 156.433 225.007 156.127 225.088 155.818C225.217 155.315 225.357 154.819 225.499 154.33C225.972 154.18 226.437 154.014 226.896 153.837L227.072 153.769C232.723 151.569 237.385 147.397 240.196 142.023C243.006 136.649 243.776 130.438 242.361 124.541C241.554 121.196 240.064 118.054 237.985 115.313C237.828 115.103 237.662 114.892 237.496 114.685C237.329 114.477 237.129 114.246 236.942 114.036C237.924 111.803 239.082 109.678 239.177 107.507C239.194 107.232 239.194 106.956 239.177 106.681V106.647C239.052 105.25 238.433 103.836 236.993 102.351C234.89 100.173 231.897 99.068 228.904 98.5378C225.91 98.0076 222.86 97.994 219.85 97.6371C214.859 97.039 209.997 95.4994 205.006 95.027C198.859 94.4575 192.67 95.5123 187.058 98.0858C183.345 99.7851 179.584 102.755 179.36 106.83C179.176 110.198 181.52 113.427 180.929 116.754C180.341 120.024 177.012 122.597 177.304 125.903C177.416 127.195 178.079 128.351 178.908 129.38C179.193 129.72 179.495 130.06 179.808 130.4C181.017 131.681 182.349 132.911 183.025 134.526C183.052 134.594 183.08 134.662 183.103 134.73C183.678 136.324 183.419 138.339 181.999 139.253C182.007 139.259 182.013 139.268 182.016 139.277C182.037 139.304 182.057 139.325 182.074 139.352C182.076 139.346 182.076 139.34 182.074 139.335C182.578 139.932 183.256 140.355 184.014 140.545L184.303 140.633C184.068 140.888 183.847 141.153 183.623 141.432L183.477 141.626C183.103 142.129 182.762 142.657 182.458 143.206C182.285 143.512 182.118 143.818 181.979 144.124C181.513 145.056 181.176 146.047 180.977 147.07C180.613 149.32 181.126 151.665 180.576 153.867C179.896 156.586 177.746 158.673 176.533 161.198C174.236 165.956 175.537 171.54 176 176.794C176.628 183.932 175.609 191.099 174.593 198.189C174.054 201.959 173.515 205.733 172.976 209.51C171.617 218.99 170.258 228.469 168.899 237.949C168.403 241.423 167.815 245.086 165.502 247.768H165.525C165.525 247.768 165.525 247.788 165.502 247.795C166.196 248.099 166.935 248.289 167.689 248.359C170.71 248.662 173.91 247.2 176.628 245.603C178.78 244.359 180.819 242.927 182.72 241.324C182.441 242.344 182.142 243.455 181.823 244.651C181.824 244.663 181.824 244.674 181.823 244.685C177.987 259.299 171.817 286.091 171.817 286.091C171.817 286.091 171.257 287.257 170.53 288.993H266.336C265.215 287.634 264.172 286.332 263.356 285.282L263.027 284.81ZM192.09 149.68C192.113 149.639 192.13 149.602 192.154 149.565C192.154 149.673 192.154 149.779 192.154 149.881C192.154 149.983 192.154 150.075 192.154 150.17C192.154 150.265 192.154 150.255 192.154 150.302C192.154 150.442 192.123 150.581 192.1 150.72C192.1 150.72 192.1 150.737 192.1 150.751L192.439 150.877L192.834 151.04C195.162 151.96 197.52 152.792 199.907 153.538C200.152 153.616 200.4 153.691 200.648 153.762L200.698 154.183C200.76 154.615 200.817 155.053 200.872 155.492C200.872 155.492 200.872 155.512 200.872 155.526C201.025 156.739 201.174 157.949 201.307 159.132C201.307 159.132 195.069 156.753 195.147 160.366C195.144 160.43 195.144 160.495 195.147 160.559C195.14 160.645 195.14 160.732 195.147 160.818C195.205 163.632 196.085 165.3 196.261 166.157C196.251 166.192 196.232 166.225 196.207 166.252C196.056 166.58 196.004 166.945 196.058 167.302C196.052 167.91 196.099 168.517 196.2 169.117C196.017 169.229 195.837 169.341 195.657 169.457C195.521 169.542 195.392 169.637 195.259 169.732C194.426 166.84 193.335 164.028 192.001 161.331C191.067 159.407 190.017 157.402 190.027 155.291C190.027 155.155 190.027 155.016 190.044 154.877C190.082 154.265 190.199 153.661 190.391 153.079C190.469 152.858 190.554 152.64 190.649 152.426C190.871 151.918 191.119 151.421 191.393 150.938C191.57 150.618 191.757 150.302 191.937 149.983C191.994 149.888 192.049 149.789 192.103 149.694L192.09 149.68ZM344.632 75.3626C344.584 75.281 344.551 75.1994 344.513 75.1247C344.513 75.0907 344.479 75.0635 344.466 75.0295C344.392 75.0645 344.316 75.0951 344.238 75.1213C344.088 75.1791 343.936 75.2334 343.779 75.2776C343.623 75.3218 343.558 75.3456 343.44 75.3728L343.137 75.4509L343.164 75.5121C343.29 75.4849 343.412 75.4611 343.538 75.4271L343.572 75.8486C343.715 75.8486 343.847 75.8282 343.976 75.8282H344.16C344.425 75.8282 344.656 75.8282 344.839 75.8282C344.768 75.6753 344.693 75.5155 344.632 75.3626Z" fill="url(#paint1_linear_5_100)"/>
<path d="M270.399 125.282L268.361 126.182C268.361 126.182 255.074 177.821 255.074 181.994C255.074 186.168 283.248 209.391 283.248 209.391L287.644 179.707C287.644 179.707 281.332 111.636 270.399 125.282Z" fill="#E8F5FF"/>
<path d="M332.201 108.856L320.429 102.711C319.77 99.8994 318.6 97.2326 316.977 94.8435C315.255 92.3557 312.965 89.9121 310.111 88.6376C302.899 85.4021 340.62 68.4192 340.62 68.4192C341.214 70.4593 341.914 72.4672 342.716 74.4348C344.659 79.2336 347.883 85.4395 352.038 87.2068C359.101 90.2146 332.201 108.856 332.201 108.856Z" fill="#FFC1C7"/>
<path opacity="0.1" d="M342.716 74.4348C341.104 80.1053 337.752 85.1261 333.134 88.7881C328.516 92.4501 322.864 94.5683 316.977 94.8435C315.255 92.3557 312.965 89.9121 310.111 88.6376C302.899 85.4021 340.62 68.4192 340.62 68.4192C341.214 70.4593 341.914 72.4672 342.716 74.4348Z" fill="black"/>
<path d="M343.776 65.86C343.777 71.4214 342.13 76.8583 339.042 81.4831C335.954 86.1078 331.565 89.7127 326.429 91.8417C321.293 93.9708 315.642 94.5283 310.189 93.4439C304.736 92.3595 299.727 89.6819 295.796 85.7496C291.865 81.8173 289.188 76.8071 288.103 71.3525C287.018 65.898 287.575 60.2442 289.703 55.1062C291.83 49.9682 295.433 45.5768 300.056 42.4874C304.679 39.3979 310.113 37.7493 315.673 37.75C319.368 37.7329 323.03 38.4483 326.447 39.8549C329.864 41.2614 332.969 43.3313 335.582 45.9449C338.195 48.5585 340.264 51.6641 341.67 55.0823C343.077 58.5005 343.793 62.1636 343.776 65.86Z" fill="#FFC1C7"/>
<path d="M347.832 105.247L340.168 123.137L333.407 135.012H311.766L305.453 118.777L308.012 101.94H324.54L335.211 101.338L338.816 100.135L341.139 101.454L347.832 105.247Z" fill="#575A89"/>
<path opacity="0.1" d="M345.193 81.3985C345.193 81.3985 349.973 82.4181 345.692 85.9289C341.411 89.4397 326.643 100.604 326.643 100.604C326.643 100.604 331.831 105.226 330.757 110.64L347.944 101.056L351.002 85.7216C351.002 85.7216 351.345 81.1131 345.193 81.3985Z" fill="black"/>
<path opacity="0.1" d="M330.023 100.604L319.09 102.409C319.09 102.409 321.346 110.752 320.218 113.121C320.184 113.195 320.156 113.271 320.133 113.349L315.673 125.411L319.016 134.883L330.587 119.096L326.643 113.121C326.643 113.121 330.811 107.595 333.292 105.678C335.772 103.761 330.023 100.604 330.023 100.604Z" fill="black"/>
<path d="M330.023 100.139L319.09 101.94C319.09 101.94 321.346 110.283 320.218 112.652C320.184 112.726 320.156 112.802 320.133 112.88L315.673 124.942L319.016 134.414L330.587 118.617L326.643 112.642C326.643 112.642 330.811 107.116 333.292 105.199C335.772 103.282 330.023 100.139 330.023 100.139Z" fill="#DCE6F2"/>
<path d="M345.651 80.4979C345.651 80.4979 350.431 81.5175 346.147 85.0283C341.863 88.539 326.643 100.604 326.643 100.604C326.643 100.604 332.279 104.326 331.209 109.736L348.396 100.156L351.454 84.821C351.454 84.821 351.794 80.2124 345.651 80.4979Z" fill="#575A89"/>
<path opacity="0.1" d="M317.728 95.9072C317.728 95.9072 318.771 97.858 323.375 101.376C323.375 101.376 315.71 105.454 318.642 111.187L306.918 108.129L305.114 102.49L317.728 95.9072Z" fill="black"/>
<path d="M317.276 95.4586C317.276 95.4586 318.319 97.4094 322.923 100.927C322.923 100.927 315.258 104.985 318.19 110.735L306.469 107.677L304.665 102.042L317.276 95.4586Z" fill="#575A89"/>
<path opacity="0.1" d="M347.832 105.247L340.168 123.137L333.421 135.012H311.766L305.453 118.777L308.008 101.94H312.605C312.53 105.869 313.964 110.484 313.872 112.2C313.716 115.021 318.078 130.24 318.078 130.24C318.078 130.24 327.207 115.47 330.811 114.154C333.077 113.329 337.878 106.457 341.136 101.454L347.832 105.247Z" fill="black"/>
<path d="M378.025 199.392L377.247 200.371C377.247 200.371 382.883 228.671 381.324 235.098C381.059 236.256 380.907 237.438 380.872 238.626V238.677C380.597 245.216 382.571 253.702 382.571 253.702C382.571 253.702 384.147 278.716 383.25 289.003H277.721C277.102 273.791 276.436 254.083 277.041 251.897C278.06 248.291 280.099 235.21 280.099 235.21L280.323 229.011C280.323 229.011 280.323 223.019 280.506 216.344C280.585 213.343 280.7 210.193 280.867 207.399C281.081 203.885 281.38 200.925 281.791 199.47C282.044 198.368 282.189 197.243 282.225 196.112C282.225 196.007 282.225 195.898 282.246 195.789C282.246 195.45 282.28 195.082 282.293 194.705C282.293 194.6 282.293 194.495 282.293 194.365C282.358 192.177 282.334 189.58 282.263 186.888C282.263 186.742 282.263 186.593 282.263 186.443C282.205 184.424 282.12 182.365 282.025 180.407C281.729 174.29 281.346 169.117 281.346 169.117L268.385 126.158L271.877 117.553L281.57 111.612L299.491 100.788C308.232 93.5996 313.988 94.4628 316.182 95.2513C316.395 95.3241 316.604 95.4092 316.807 95.5062C316.875 95.5402 316.93 95.5674 316.981 95.598C317.05 95.631 317.118 95.6697 317.181 95.7135C316.58 96.0028 316.058 96.433 315.659 96.9676C315.21 97.576 314.889 98.27 314.718 99.0068C314.603 99.4635 314.523 99.9281 314.477 100.397C314.433 100.89 314.416 101.399 314.416 101.913C314.44 103.038 314.536 104.161 314.704 105.274C314.704 105.294 314.704 105.321 314.704 105.349C314.817 106.144 314.956 106.922 315.092 107.653C315.09 107.665 315.09 107.678 315.092 107.69C315.248 108.543 315.404 109.332 315.51 110.012C315.53 110.134 315.547 110.246 315.564 110.351C315.639 110.801 315.674 111.255 315.669 111.711C315.708 112.81 315.856 113.903 316.111 114.974C316.199 115.422 316.301 115.901 316.413 116.401C316.566 117.081 316.733 117.822 316.913 118.576C317.011 118.991 317.117 119.419 317.225 119.844C317.266 120.014 317.31 120.184 317.351 120.357L317.419 120.625C318.143 123.504 318.927 126.369 319.41 128.102C319.695 129.122 319.875 129.751 319.875 129.751C319.875 129.751 324.992 121.475 329.075 116.765C329.137 116.697 329.191 116.632 329.249 116.571C329.653 116.105 330.05 115.68 330.431 115.307C331.263 114.477 332.011 113.886 332.612 113.668C332.74 113.621 332.864 113.563 332.982 113.495C334.654 112.547 337.351 109.104 339.876 105.498C340.124 105.158 340.365 104.788 340.609 104.438C341.17 103.629 341.714 102.817 342.227 102.038C342.621 101.444 342.998 100.866 343.355 100.315C345.053 97.6711 346.249 95.6999 346.249 95.6999L348.607 95.5946L349.018 95.5742H349.293L359.998 95.078C359.998 95.078 360.46 95.1562 361.221 95.3091C361.262 95.3091 361.303 95.3091 361.347 95.3363C365.145 96.0908 375.698 98.48 376.343 101.794C377.131 105.852 394.152 111.266 394.152 111.266C394.376 113.985 398.545 115.776 398.545 115.776C398.545 115.776 404.857 132.463 403.169 139.002C401.501 145.459 407.511 161.433 407.67 161.881L406.519 163.336L378.025 199.392Z" fill="#E8F5FF"/>
<path opacity="0.1" d="M345.189 80.2124C345.189 80.2124 355.609 77.2556 357.977 83.3425C360.345 89.4295 365.641 114.012 365.641 114.012C365.641 114.012 351.889 116.605 348.284 114.012C346.17 112.473 343.553 111.788 340.956 112.095L333.179 117.393L330.883 116.714C330.883 116.714 343.324 98.2115 346.028 91.924C348.733 85.6366 349.647 82.8259 345.189 80.2124Z" fill="black"/>
<path d="M344.737 78.8529C344.737 78.8529 355.164 75.8961 357.542 81.9831C359.92 88.07 365.207 112.652 365.207 112.652C365.207 112.652 351.457 115.245 347.849 112.652C345.736 111.113 343.12 110.429 340.525 110.735L332.741 116.034L330.445 115.354C330.445 115.354 342.886 96.8521 345.59 90.5646C348.294 84.2771 349.195 81.4733 344.737 78.8529Z" fill="#E8F5FF"/>
<path opacity="0.1" d="M274.795 176.92C274.795 176.92 282.572 178.837 284.04 183.235C285.507 187.633 278.291 187.745 278.291 187.745C278.291 187.745 273.895 179.965 274.795 176.92Z" fill="black"/>
<path opacity="0.1" d="M303.761 209.391C303.761 209.391 284.716 248.403 289.112 252.125C293.508 255.846 303.761 209.391 303.761 209.391Z" fill="black"/>
<path opacity="0.1" d="M330.023 180.642C330.023 180.642 345.24 218.536 342.196 224.389C339.152 230.241 348.733 224.389 348.733 224.389L330.023 180.642Z" fill="black"/>
<path d="M351.213 218.074C351.213 218.074 299.817 220.555 314.81 236.566C329.802 252.577 360.569 237.246 360.569 237.246L351.213 218.074Z" fill="#FFC1C7"/>
<path opacity="0.1" d="M343.776 65.86C343.78 69.5476 343.057 73.1997 341.646 76.6065C341.173 76.6608 340.701 76.6948 340.246 76.7152C339.566 75.2232 339.93 73.5001 339.944 71.8586C339.957 70.2171 339.352 68.2866 337.773 67.8448C334.623 66.9578 332.449 72.8476 329.344 71.7838C326.966 70.9749 327.587 67.3656 326.218 65.2823C325.134 63.6339 322.963 63.1683 321.275 62.1351C317.684 59.9294 317.793 56.4017 316.125 53.0642C314.378 49.567 310.689 50.6002 307.485 52.6632C305.052 54.2333 302.953 56.3371 300.35 57.5878C298.098 58.6753 295.567 59.0696 293.07 59.1273C291.533 59.1869 289.995 59.0244 288.504 58.6447C290.257 52.0493 294.349 46.3172 300.016 42.5172C305.683 38.7172 312.538 37.1088 319.303 37.9919C326.068 38.8751 332.281 42.1895 336.783 47.317C341.285 52.4446 343.769 59.0353 343.772 65.86H343.776Z" fill="black"/>
<path d="M307.495 51.7625C305.059 53.3327 302.963 55.433 300.361 56.6905C298.108 57.7747 295.577 58.1689 293.08 58.2267C290.022 58.2947 286.73 57.7577 284.641 55.5486C282.721 53.5094 282.263 50.3725 283.075 47.6978C283.887 45.0231 285.833 42.8038 288.12 41.1962C290.406 39.5887 293.06 38.4773 294.575 36.1764C295.377 34.9597 295.764 33.5255 296.43 32.2306C298.56 28.0877 303.35 25.8446 307.981 25.5659C312.612 25.2873 317.202 26.6671 321.611 28.1625C326.021 29.6579 330.465 31.3028 335.119 31.6121C337.192 31.7412 339.346 31.6121 341.269 32.3972C343.854 33.4473 345.549 35.9589 346.704 38.5147C347.999 41.3967 348.804 44.5438 348.668 47.691C348.383 54.41 343.946 61.0034 345.896 67.4404C346.412 69.1567 347.38 70.9172 346.864 72.6335C346.11 75.1383 342.879 75.7092 340.266 75.8282C339.587 74.3362 339.95 72.6097 339.964 70.9715C339.978 69.3334 339.373 67.3996 337.796 66.9578C334.644 66.0775 332.469 71.9571 329.371 70.8968C327.01 70.0845 327.621 66.4786 326.249 64.3952C325.165 62.7435 322.991 62.2813 321.306 61.2481C317.715 59.0424 317.823 55.5146 316.155 52.1772C314.395 48.663 310.702 49.6962 307.495 51.7625Z" fill="#99607E"/>
<path d="M257.659 181.09L255.067 181.994C255.067 181.994 256.086 197.329 252.689 201.727C249.291 206.125 263.846 217.058 263.846 217.058C263.846 217.058 283.795 216.946 284.359 215.359C284.923 213.772 283.34 186.946 283.34 186.946C283.34 186.946 272.631 182.773 273.532 176.122C273.532 176.122 270.263 191.793 265.419 191.116C260.574 190.44 255.074 186.392 257.659 181.09Z" fill="#E8F5FF"/>
<path opacity="0.1" d="M266.305 195.861C270.082 195.861 273.144 193.059 273.144 189.604C273.144 186.148 270.082 183.347 266.305 183.347C262.528 183.347 259.466 186.148 259.466 189.604C259.466 193.059 262.528 195.861 266.305 195.861Z" fill="black"/>
<path d="M273.783 181.542C273.783 181.542 272.424 140.052 260.594 149.296C248.765 158.54 248.649 169.596 250.902 172.862C253.154 176.128 260.377 192.479 260.377 192.479C261.507 193.134 262.775 193.512 264.079 193.582C265.383 193.652 266.685 193.412 267.879 192.881C269.072 192.351 270.123 191.545 270.945 190.53C271.767 189.515 272.336 188.319 272.607 187.041L273.783 181.542Z" fill="#FFC1C7"/>
<path opacity="0.1" d="M347.578 76.4467C347.522 76.2644 347.416 76.1017 347.272 75.9777C346.687 75.4441 345.43 75.2572 343.535 75.4203L343.613 76.3176C346.14 76.1001 346.64 76.6031 346.704 76.688V76.773L346.783 76.8852C347.098 77.3089 347.321 77.7938 347.438 78.3088C347.555 78.8238 347.563 79.3576 347.462 79.8759C346.908 82.6458 343.507 84.8515 343.473 84.8753L343.392 84.9229L343.341 85.0011C341.873 87.1796 333.574 93.3277 331.403 94.9182L331.212 94.7007C330.241 95.5436 321.7 103.024 321.238 105.889C320.939 107.687 318.914 108.384 318.18 108.577C317.405 107.989 314.891 105.988 313.583 103.744C312.357 101.634 317.293 97.5148 317.728 95.9072L317.049 95.2105C316.977 95.4688 310.638 101.396 312.401 104.424C313.814 106.854 316.396 108.934 317.3 109.621C317.011 112.244 315.214 127.65 312.452 131.3C309.021 135.838 306.136 158.704 306.456 166.687C306.738 173.78 304.886 187.177 298.703 192.931C297.632 193.971 296.341 194.755 294.925 195.226C293.509 195.697 292.005 195.842 290.525 195.65H290.451H290.376C290.287 195.65 281.318 196.568 273.783 190.212C267.617 185.023 264.124 176.553 263.397 165.032H263.248L263.187 161.677C264.858 161.416 266.364 160.517 267.387 159.169C268.41 157.821 268.871 156.128 268.673 154.447C268.475 152.766 267.633 151.227 266.324 150.154C265.016 149.081 263.342 148.557 261.656 148.692C259.969 148.827 258.4 149.611 257.279 150.879C256.158 152.147 255.572 153.8 255.644 155.492C255.716 157.183 256.44 158.78 257.665 159.948C258.89 161.116 260.519 161.764 262.211 161.756H262.286L262.347 165.09L262.048 165.11C262.796 177.005 266.465 185.804 272.92 191.239C277.826 195.306 284.093 197.357 290.454 196.979C290.905 197.028 291.359 197.053 291.813 197.054C294.728 197.069 297.534 195.94 299.627 193.91C306.14 187.843 308.12 173.953 307.811 166.619C307.471 158.16 310.498 136.116 313.536 132.103C316.512 128.164 318.316 112.815 318.632 109.842C319.709 109.539 322.145 108.584 322.559 106.103C322.858 104.309 328.562 98.7791 332.072 95.7169L331.967 95.5946C333.855 94.2147 339.73 89.8645 342.641 87.0708C343.545 86.2042 344.442 85.3375 345.379 84.5117C346.507 83.5125 347.941 81.9253 348.318 80.0493C348.447 79.43 348.447 78.791 348.32 78.1714C348.193 77.5519 347.94 76.965 347.578 76.4467Z" fill="black"/>
<path d="M317.184 109.407C317.042 109.308 313.658 106.885 311.963 103.969C310.203 100.941 316.542 95.0168 316.61 94.7585L317.29 95.4553C316.858 97.0594 311.922 101.182 313.148 103.289C314.694 105.95 317.949 108.278 317.983 108.302L317.184 109.407Z" fill="#353146"/>
<path d="M330.961 95.5776L330.431 94.8469C330.54 94.7687 341.211 87.047 342.893 84.549L342.947 84.4743L343.025 84.4233C343.059 84.3995 346.46 82.1972 347.014 79.4239C347.116 78.9061 347.108 78.3726 346.991 77.858C346.874 77.3434 346.65 76.8591 346.334 76.4365L346.256 76.321V76.2394C346.188 76.151 345.689 75.6514 343.161 75.8689L343.083 74.9683C344.982 74.8052 346.236 74.9921 346.82 75.5257C346.965 75.6509 347.072 75.8147 347.129 75.9981C347.496 76.5148 347.754 77.1014 347.886 77.7215C348.018 78.3417 348.022 78.9824 347.897 79.604C347.52 81.4835 346.089 83.0706 344.958 84.0664C344.024 84.8923 343.124 85.7657 342.223 86.6256C338.809 89.8985 331.335 95.3091 330.961 95.5776Z" fill="#E8F5FF"/>
<path d="M262.748 160.494L261.848 160.511L261.948 165.985L262.848 165.968L262.748 160.494Z" fill="#E8F5FF"/>
<path d="M261.773 161.324C265.404 161.324 268.347 158.38 268.347 154.748C268.347 151.116 265.404 148.171 261.773 148.171C258.142 148.171 255.199 151.116 255.199 154.748C255.199 158.38 258.142 161.324 261.773 161.324Z" fill="#6C63FF"/>
<path d="M261.773 160.209C264.788 160.209 267.233 157.764 267.233 154.748C267.233 151.731 264.788 149.286 261.773 149.286C258.758 149.286 256.314 151.731 256.314 154.748C256.314 157.764 258.758 160.209 261.773 160.209Z" fill="#E8F5FF"/>
<path d="M291.385 196.615C290.931 196.616 290.477 196.592 290.026 196.544C283.666 196.919 277.4 194.867 272.492 190.804C266.037 185.366 262.375 176.577 261.62 164.672L262.979 164.587C263.706 176.108 267.199 184.581 273.369 189.767C280.904 196.105 289.87 195.205 289.958 195.205H290.033H290.107C291.588 195.396 293.092 195.25 294.508 194.78C295.925 194.309 297.217 193.525 298.288 192.486C304.468 186.732 306.32 173.335 306.038 166.242C305.698 158.252 308.582 135.386 312.017 130.852C315.024 126.879 316.889 108.972 316.909 108.791L316.96 108.282L317.463 108.193C317.494 108.193 320.429 107.636 320.796 105.44C321.272 102.579 329.799 95.0984 330.767 94.2521L331.654 95.2717C328.131 98.3305 322.427 103.863 322.141 105.661C321.727 108.149 319.291 109.101 318.217 109.4C317.878 112.377 316.087 127.722 313.121 131.661C310.084 135.675 307.057 157.718 307.397 166.177C307.689 173.511 305.729 187.405 299.216 193.468C297.119 195.503 294.307 196.633 291.385 196.615Z" fill="#353146"/>
<g opacity="0.1">
<path d="M346.67 57.8257C347.228 55.7661 347.9 53.693 348.369 51.6062C347.808 53.7032 347.132 55.7661 346.67 57.8257Z" fill="black"/>
<path d="M340.987 74.0099C340.307 72.5179 340.671 70.7914 340.684 69.1533C340.698 67.5151 340.093 65.5983 338.517 65.1395C335.364 64.2593 333.19 70.1423 330.091 69.0785C327.713 68.2662 328.341 64.6603 326.969 62.5769C325.885 60.9252 323.714 60.463 322.029 59.4298C318.435 57.2241 318.543 53.6963 316.879 50.3589C315.129 46.8583 311.443 47.8915 308.236 49.9579C305.8 51.528 303.704 53.6318 301.101 54.8859C298.849 55.97 296.318 56.3643 293.821 56.422C290.78 56.4934 287.471 55.953 285.382 53.7439C283.771 52.0446 283.19 49.5534 283.523 47.2186C283.465 47.3783 283.414 47.538 283.364 47.6978C282.548 50.3725 283.024 53.5162 284.93 55.5486C287.019 57.7577 290.328 58.2947 293.369 58.2267C295.869 58.1689 298.397 57.7747 300.653 56.6905C303.262 55.433 305.358 53.3327 307.787 51.7625C310.994 49.6962 314.684 48.663 316.43 52.1636C318.095 55.501 317.99 59.0288 321.581 61.2345C323.279 62.2541 325.437 62.7299 326.524 64.3816C327.883 66.4718 327.282 70.0709 329.646 70.8832C332.741 71.9435 334.915 66.0639 338.068 66.9442C339.645 67.386 340.253 69.3232 340.236 70.9579C340.219 72.5927 339.865 74.3226 340.538 75.8146C343.151 75.6956 346.382 75.1349 347.139 72.6199C347.244 72.2589 347.292 71.8841 347.282 71.5085C346.178 73.4152 343.338 73.9046 340.987 74.0099Z" fill="black"/>
</g>
<path opacity="0.1" d="M402.387 157.752L406.332 161.926C406.332 161.926 409.488 184.924 411.064 187.075C412.641 189.227 416.364 197.784 412.868 204.211C412.868 204.211 411.74 207.708 412.417 209.173C413.093 210.638 407.348 217.969 407.348 217.969C407.348 217.969 399.795 224.732 398.215 225.748C396.636 226.764 388.299 234.88 385.482 234.993C382.666 235.105 381.745 238.602 381.745 238.602L365.852 239.166C365.852 239.166 357.073 238.707 355.164 239.948C355.164 239.948 356.183 226.53 346.375 217.734L358.884 213.224C358.884 213.224 363.62 211.185 365.084 209.054C366.005 207.748 367.312 206.763 368.821 206.237C368.821 206.237 372.314 203.756 372.426 202.403C372.538 201.05 376.696 199.392 376.696 199.392L374.342 179.289L375.582 145.915C375.582 145.915 379.526 117.951 387.867 119.531C396.208 121.111 402.387 157.752 402.387 157.752Z" fill="black"/>
<path d="M403.746 157.752L407.691 161.926C407.691 161.926 410.847 184.924 412.423 187.075C414 189.227 417.723 197.784 414.227 204.211C414.227 204.211 413.103 207.708 413.779 209.173C414.455 210.638 408.707 217.969 408.707 217.969C408.707 217.969 401.154 224.732 399.574 225.748C397.995 226.764 389.658 234.88 386.841 234.993C384.025 235.105 383.104 238.602 383.104 238.602L367.211 239.166C367.211 239.166 358.425 238.707 356.523 239.948C356.523 239.948 357.542 226.53 347.734 217.734L360.243 213.224C360.243 213.224 364.979 211.185 366.443 209.054C367.364 207.748 368.671 206.763 370.18 206.237C370.18 206.237 373.673 203.756 373.785 202.403C373.897 201.05 378.055 199.392 378.055 199.392L375.701 179.289L376.941 145.915C376.941 145.915 380.885 117.951 389.226 119.531C397.567 121.111 403.746 157.752 403.746 157.752Z" fill="#E8F5FF"/>
<path opacity="0.1" d="M389.083 191.466C389.083 191.466 400.692 188.408 403.736 192.146C406.78 195.885 389.083 191.466 389.083 191.466Z" fill="black"/>
<path opacity="0.1" d="M386.379 196.595C390.323 199.358 402.496 199.47 402.496 199.47L386.379 196.595Z" fill="black"/>
<path opacity="0.1" d="M392.352 210.407C392.691 210.519 400.719 219.09 404.09 216.497C407.46 213.904 392.352 210.407 392.352 210.407Z" fill="black"/>
<path opacity="0.1" d="M284.233 138.472C284.233 138.472 286.591 154.71 285.429 161.324C284.267 167.938 288.507 176.132 288.507 176.132L284.233 138.472Z" fill="black"/>
<path d="M232.036 145.075C229.318 147.206 227.334 152.25 225.897 157.793C223.39 167.462 222.571 178.674 222.571 178.674C222.571 178.674 200.929 173.712 202.506 171.459C203.498 170.041 202.166 159.363 201.055 151.621C200.393 147.046 199.802 143.495 199.802 143.495C199.802 143.495 239.476 139.209 232.036 145.075Z" fill="#FFCCD0"/>
<path opacity="0.1" d="M232.036 144.623C229.318 146.757 227.334 151.798 225.897 157.341C221.585 158.65 216.999 158.769 212.626 157.683C208.252 156.597 204.254 154.347 201.055 151.172C200.393 146.594 199.802 143.043 199.802 143.043C199.802 143.043 239.476 138.76 232.036 144.623Z" fill="black"/>
<path d="M243.669 132.476C243.671 138.388 241.583 144.109 237.773 148.628C233.964 153.147 228.679 156.173 222.855 157.169C217.03 158.165 211.041 157.068 205.947 154.071C200.854 151.075 196.984 146.372 195.023 140.796C193.062 135.219 193.137 129.129 195.233 123.602C197.329 118.075 201.313 113.469 206.478 110.597C211.643 107.726 217.657 106.775 223.456 107.913C229.254 109.051 234.464 112.205 238.161 116.816C241.725 121.257 243.668 126.781 243.669 132.476Z" fill="#FFCCD0"/>
<path opacity="0.1" d="M263.4 289.003H256.266L255.665 276.398L255.036 263.351C255.036 263.351 256.657 263.109 259.239 262.749L260.282 262.61H260.367C260.931 265.257 261.488 267.976 262.025 270.692C262.918 275.512 263.383 280.403 263.414 285.306C263.414 285.646 263.414 285.985 263.414 286.305C263.434 287.212 263.414 288.12 263.4 289.003Z" fill="black"/>
<path d="M262.031 289.003H172.558C172.945 288.123 173.203 287.59 173.203 287.59C173.203 287.59 180.362 256.261 184 243.006C184.001 242.995 184.001 242.984 184 242.972C184.455 241.172 185.004 239.397 185.645 237.654C185.686 237.535 185.739 237.421 185.804 237.314C187.605 234.384 189.861 231.227 186.705 226.717C183.548 222.207 184.666 202.362 184.666 202.362C184.666 202.362 188.498 185.447 192.555 176.427C193.17 175.03 194.044 173.762 195.13 172.689C195.483 172.343 195.86 172.023 196.258 171.731C196.561 171.503 196.876 171.293 197.202 171.102L197.267 171.061C198.971 170.094 200.863 169.507 202.815 169.338C204.201 169.193 205.601 169.232 206.977 169.453C213.554 170.419 218.82 172.033 223.006 173.872C234.349 178.857 237.784 185.539 237.852 185.678L237.879 185.736C238.335 186.8 244.993 202.352 247.392 209.608C248.014 211.498 248.353 212.827 248.218 213.19C247.538 214.992 253.402 237.541 253.402 237.541C253.402 237.541 256.12 248.417 258.838 261.165C258.957 261.695 259.069 262.226 259.178 262.763C259.663 265.077 260.146 267.436 260.611 269.791C261.513 274.645 261.978 279.57 262.001 284.507C262.051 286.045 262.061 287.544 262.031 289.003Z" fill="#FF748E"/>
<path opacity="0.1" d="M202.282 161.582C202.282 161.582 196.109 159.203 196.183 162.813C196.258 166.422 197.688 168.148 197.236 168.675C196.785 169.202 197.461 172.359 197.461 172.359C197.461 172.359 205.801 172.359 209.634 174.086C213.466 175.812 227.592 179.272 229.396 180.326C231.2 181.379 237.89 186.103 237.89 186.103L238.491 177.158C238.491 177.158 231.577 171.445 220.233 168.515C208.89 165.586 202.282 161.582 202.282 161.582Z" fill="black"/>
<path d="M202.282 161.13C202.282 161.13 196.109 158.751 196.183 162.361C196.258 165.97 197.688 167.696 197.236 168.223C196.785 168.75 197.461 171.907 197.461 171.907C197.461 171.907 205.801 171.907 209.634 173.637C213.466 175.367 227.592 178.823 229.396 179.874C231.2 180.924 237.89 185.651 237.89 185.651L238.498 176.733C238.498 176.733 231.584 171.02 220.24 168.091C208.896 165.161 202.282 161.13 202.282 161.13Z" fill="#FF748E"/>
<path opacity="0.1" d="M220.916 182.657C220.916 182.657 232.712 195.433 232.111 198.97C231.509 202.508 220.916 182.657 220.916 182.657Z" fill="black"/>
<path opacity="0.1" d="M201.755 228.807C201.755 228.807 193.109 236.777 190.561 237.229C188.013 237.681 192.514 239.183 195.443 237.983C198.371 236.784 204.616 233.626 204.616 233.626L201.755 228.807Z" fill="black"/>
<path d="M265.544 289.003H245.381C242.561 286.556 239.894 284.29 238.195 282.927C235.477 280.745 233.517 277.533 232.267 274.95C231.985 274.362 231.74 273.812 231.533 273.312C231.162 272.451 230.835 271.572 230.555 270.678L245.486 261.808C246.311 262.51 247.087 263.268 247.807 264.078L247.987 264.285C248.816 265.264 249.546 266.375 249.611 267.286C249.685 268.347 252.634 272.449 255.648 276.388C258.705 280.395 261.838 284.225 262.045 284.483C262.045 284.483 262.561 285.187 263.404 286.267C263.999 287.049 264.732 287.987 265.544 289.003Z" fill="#FFCCD0"/>
<path opacity="0.1" d="M238.161 116.816C237.444 118.433 236.802 120.112 236.707 121.913C236.439 127.113 236.874 138.74 231.119 141.35C228.268 142.635 225.217 139.814 222.092 139.746C219.843 139.698 217.78 141.126 216.408 142.91C215.035 144.694 214.183 146.812 213.187 148.831C212.281 150.663 211.237 152.424 210.065 154.098C209.715 154.611 209.329 155.098 208.91 155.556C205.401 154.075 202.276 151.812 199.773 148.939C197.271 146.067 195.457 142.661 194.469 138.981C193.482 135.301 193.347 131.444 194.076 127.704C194.804 123.964 196.376 120.44 198.673 117.4C200.969 114.359 203.928 111.884 207.326 110.161C210.723 108.439 214.469 107.515 218.278 107.46C222.086 107.405 225.857 108.22 229.303 109.844C232.749 111.468 235.778 113.857 238.161 116.829V116.816Z" fill="black"/>
<path d="M236.255 120.996C235.984 126.196 236.422 137.822 230.663 140.429C227.813 141.714 224.762 138.896 221.637 138.828C219.387 138.777 217.329 140.208 215.953 141.989C214.577 143.77 213.731 145.891 212.732 147.913C211.826 149.745 210.782 151.506 209.61 153.181C208.91 154.173 208.135 155.169 207.058 155.726C205.183 156.705 202.91 156.155 200.899 155.526C198.29 154.703 195.719 153.777 193.187 152.746C193.245 152.363 193.274 151.977 193.275 151.59C193.2 151.733 193.119 151.866 193.037 152.008L192.878 152.287C192.589 152.797 192.307 153.307 192.049 153.83C191.95 154.03 191.855 154.238 191.77 154.445C191.428 155.217 191.214 156.038 191.135 156.879C190.962 159.145 192.079 161.297 193.071 163.336C196.887 171.224 199.244 180.448 196.374 188.724C195.13 192.323 192.976 195.521 191.403 198.998C188.654 205.156 187.844 212.005 189.083 218.635C189.868 222.754 191.441 226.832 191.053 231.009C190.374 238.197 184.177 243.547 177.97 247.224C174.617 249.202 170.513 250.963 166.952 249.399C169.222 246.748 169.806 243.081 170.295 239.621C171.634 230.185 172.976 220.743 174.321 211.297C174.858 207.538 175.394 203.78 175.928 200.021C176.927 192.958 177.939 185.818 177.314 178.711C176.859 173.474 175.575 167.914 177.844 163.173C179.044 160.661 181.181 158.581 181.846 155.876C182.393 153.677 181.884 151.339 182.244 149.099C182.441 148.08 182.775 147.092 183.236 146.163C183.823 144.901 184.59 143.731 185.512 142.689C184.602 142.424 183.752 142.061 183.236 141.299C184.697 140.348 184.918 138.203 184.255 136.592C183.593 134.981 182.268 133.754 181.075 132.483C179.883 131.212 178.734 129.73 178.585 127.997C178.296 124.697 181.592 122.141 182.173 118.885C182.76 115.572 180.436 112.35 180.623 108.995C180.841 104.941 184.564 101.994 188.24 100.285C193.787 97.7158 199.915 96.6605 206.002 97.2259C210.955 97.6949 215.749 99.2277 220.689 99.8224C223.668 100.162 226.688 100.196 229.648 100.72C232.607 101.243 235.573 102.348 237.655 104.519C243.145 110.246 236.568 114.96 236.255 120.996Z" fill="#FFE0D0"/>
<path opacity="0.1" d="M231.662 274.953C229.93 274.202 226.777 274.651 221.365 273.003C215.953 271.354 214.91 263.905 214.91 263.905V263.881C214.845 263.711 214.342 262.603 210.938 258.722C207.177 254.436 199.047 232.79 199.047 232.79C199.047 232.79 191.838 225.045 192.066 222.19C192.293 219.335 190.785 211.739 190.934 203.243C191.084 194.746 207.164 189.111 207.164 189.111C238.124 183.622 230.833 219.328 230.008 222.034C229.182 224.739 233.466 232.046 233.466 232.046C232.862 235.227 235.946 240.152 235.946 240.152C235.946 240.152 236.694 244.509 236.847 246.164C236.855 246.24 236.872 246.315 236.898 246.388C237.394 247.948 241.437 249.362 243.081 250.222C244.81 251.126 250.372 259.017 250.372 259.017C251.571 264.812 233.388 275.715 231.662 274.953Z" fill="black"/>
<path d="M232.563 273.594C230.833 272.84 227.677 273.292 222.268 271.64C216.86 269.988 215.813 262.545 215.813 262.545V262.521C215.752 262.348 215.246 261.243 211.842 257.362C208.081 253.077 199.951 231.427 199.951 231.427C199.951 231.427 192.742 223.685 192.966 220.83C193.19 217.976 191.689 210.38 191.838 201.89C191.988 193.4 208.057 187.769 208.057 187.769C239.018 182.28 231.727 217.986 230.901 220.691C230.076 223.396 234.36 230.703 234.36 230.703C233.755 233.885 236.84 238.809 236.84 238.809C236.84 238.809 237.587 243.166 237.744 244.821C237.749 244.898 237.765 244.973 237.791 245.046C238.287 246.606 242.33 248.019 243.978 248.879C245.704 249.78 251.269 257.675 251.269 257.675C252.475 263.459 234.292 274.362 232.563 273.594Z" fill="#FF748E"/>
<path opacity="0.1" d="M208.669 206.41C208.669 206.41 222.194 220.684 225.724 220.684C229.253 220.684 208.669 206.41 208.669 206.41Z" fill="black"/>
<path d="M232.562 273.594C230.833 272.84 227.677 273.292 222.268 271.64C216.86 269.988 215.813 262.545 215.813 262.545V262.521C219.398 260.142 228.475 253.423 232.053 250.966C234.57 249.243 236.626 246.711 237.828 245.032C238.324 246.592 242.367 248.006 244.015 248.866C245.741 249.766 251.306 257.661 251.306 257.661C252.475 263.459 234.292 274.362 232.562 273.594Z" fill="#FF748E"/>
<g opacity="0.1">
<path d="M183.256 141.337C183.273 141.364 183.297 141.388 183.317 141.415C183.419 141.286 183.525 141.157 183.633 141.034C183.518 141.147 183.391 141.248 183.256 141.337Z" fill="black"/>
<path d="M191.138 156.916C191.281 155.03 192.29 153.368 193.234 151.709C192.616 151.471 191.998 151.23 191.386 150.979C191.444 150.597 191.474 150.212 191.475 149.826C190.52 151.526 189.48 153.198 189.334 155.111C189.161 157.382 190.279 159.529 191.271 161.569C195.089 169.453 197.444 178.677 194.573 186.956C193.326 190.552 191.176 193.754 189.603 197.23C186.854 203.387 186.046 210.236 187.286 216.864C188.064 220.987 189.64 225.062 189.253 229.239C188.573 236.427 182.38 241.776 176.169 245.45C173.632 246.952 170.666 248.329 167.829 248.23C167.566 248.653 167.273 249.056 166.952 249.437C170.516 251.01 174.617 249.24 177.97 247.255C184.184 243.584 190.391 238.248 191.07 231.047C191.458 226.87 189.881 222.795 189.1 218.672C187.86 212.045 188.665 205.197 191.41 199.038C192.973 195.565 195.147 192.36 196.38 188.764C199.251 180.485 196.893 171.262 193.078 163.377C192.09 161.324 190.965 159.186 191.138 156.916Z" fill="black"/>
<path d="M237.648 104.56C237.314 104.217 236.955 103.899 236.575 103.609C240.693 108.951 234.747 113.492 234.452 119.242C234.187 124.442 234.621 136.072 228.863 138.676C226.016 139.964 222.962 137.143 219.839 137.075C217.587 137.027 215.528 138.458 214.152 140.239C212.776 142.02 211.93 144.14 210.935 146.159C210.027 147.991 208.982 149.752 207.809 151.427C207.13 152.423 206.335 153.415 205.254 153.976C203.386 154.952 201.113 154.404 199.098 153.772C197.139 153.156 195.198 152.476 193.275 151.733C193.271 152.087 193.242 152.44 193.187 152.79C195.721 153.823 198.293 154.75 200.902 155.57C202.914 156.202 205.186 156.749 207.058 155.774C208.135 155.213 208.917 154.217 209.613 153.222C210.787 151.549 211.831 149.789 212.735 147.957C213.734 145.938 214.577 143.814 215.956 142.033C217.335 140.252 219.391 138.825 221.64 138.873C224.766 138.941 227.82 141.761 230.667 140.473C236.425 137.87 235.987 126.24 236.256 121.04C236.568 114.994 243.145 110.283 237.648 104.56Z" fill="black"/>
</g>
<path opacity="0.1" d="M192.881 152.29C192.592 152.8 192.31 153.31 192.052 153.833C191.954 154.034 191.858 154.241 191.773 154.449C189.993 152.654 185.658 148.389 183.239 147.067C183.827 145.806 184.594 144.636 185.515 143.593C185.515 143.593 191.281 146.642 192.881 152.29Z" fill="black"/>
<path d="M193.041 152.012C191.706 145.966 185.515 142.693 185.515 142.693C184.593 143.735 183.827 144.905 183.239 146.166C185.791 147.563 190.493 152.246 192.052 153.833L193.041 152.012Z" fill="#FF748E"/>
</g>
</g>
<defs>
<linearGradient id="paint0_linear_5_100" x1="348.019" y1="55.4262" x2="348.019" y2="49.1796" gradientUnits="userSpaceOnUse">
<stop stop-color="#808080" stop-opacity="0.25"/>
<stop offset="0.54" stop-color="#808080" stop-opacity="0.12"/>
<stop offset="1" stop-color="#808080" stop-opacity="0.1"/>
</linearGradient>
<linearGradient id="paint1_linear_5_100" x1="291.215" y1="289.003" x2="291.215" y2="23" gradientUnits="userSpaceOnUse">
<stop stop-color="#808080" stop-opacity="0.25"/>
<stop offset="0.54" stop-color="#808080" stop-opacity="0.12"/>
<stop offset="1" stop-color="#808080" stop-opacity="0.1"/>
</linearGradient>
<clipPath id="clip0_5_100">
<rect width="555" height="289" fill="white"/>
</clipPath>
<clipPath id="clip1_5_100">
<rect width="369" height="266" fill="white" transform="translate(100 23)"/>
</clipPath>
</defs>
</svg>
